<svg version="1.1" xmlns="http://www.w3.org/2000/svg" xmlns:xlink="http://www.w3.org/1999/xlink" width="1487.84002" height="477.1742" viewBox="287.81104,381.3084,1487.84002,477.1742"><g fill="none" fill-rule="nonzero" stroke="none" stroke-width="none" stroke-linecap="butt" stroke-linejoin="miter" stroke-miterlimit="10" stroke-dasharray="" stroke-dashoffset="0" font-family="none" font-weight="none" font-size="none" text-anchor="none" style="mix-blend-mode: normal"><path d="M589.81895,606.1524c-4.84826,13.39859 -12.16857,26.14627 -21.96093,38.24304l-35.2833,46.02533l-3.3866,-7.96368l2.62531,-10.3744l7.19155,-14.58733l2.09458,-12.11431l2.57245,-14.71754l2.6774,-10.98083l9.70357,-6.43471l11.08211,-6.71616l4.56215,-8.20327l8.25421,-5.54883l8.43102,-6.32635l6.21835,0.33675c-0.95099,6.72625 -2.54495,13.18034 -4.78187,19.36228z" fill="#d0d0ce" stroke="none" stroke-width="1"/><path d="M583.95048,686.35808l6.02784,79.62497l-0.1704,0.34282l-15.01139,0.1902l-12.46624,-9.932l-13.57013,-6.54909l-9.71636,-8.47628l-5.9895,-14.79638l-5.62852,-6.39258l-3.74801,-10.79396l-6.1594,-10.9608l-1.53738,-7.11143z" fill="#d0d0ce" stroke="none" stroke-width="1"/><path d="M832.38701,705.70919c0,0 0.153,0.17929 0.45901,0.53787l-0.49844,-0.03943c-0.64889,8.20235 -2.02855,16.02408 -4.13899,23.4652l-1.859,-0.29156l-3.79283,-10.56401l-15.55375,-6.73015l-2.46441,-13.6672l-9.43989,-6.4426l-3.63416,-7.49292l-5.28424,-10.16289l-3.97851,-14.97755l0.44144,-9.63675l-1.35457,-10.05347l-1.8247,-14.99982l-7.77733,-12.20256l1.85213,-11.43794l-3.83052,-13.00882l5.71097,-12.29108l0.18974,-12.03787l-2.45528,-10.23459l3.89581,-9.78246l1.9353,-13.92303l-3.01566,-15.18945l1.17145,-8.31773l10.10386,-5.39531l1.91098,-7.86198l3.93453,-12.78902l7.15154,-14.12909l6.44533,-5.48617c4.54973,3.69942 8.72822,7.74223 12.53547,12.12842c9.19336,10.59134 16.00572,22.74979 20.43708,36.47534c4.43136,13.72555 6.02927,28.39727 4.79374,44.01514l-0.03943,0.49844c-0.15773,1.99377 -0.23895,4.07719 -0.24368,6.25025c-0.00472,2.17306 -0.0728,4.09033 -0.20424,5.75181l-10.13396,128.09978c-0.13144,1.66148 -0.3591,3.48253 -0.68297,5.46315c-0.32387,1.98063 -0.56468,3.96783 -0.7224,5.9616z" fill="#d0d0ce" stroke="none" stroke-width="1"/><path d="M1058.93685,525.28882l-37.13383,-32.31487l3.36619,-8.12631l8.77732,-5.18802l-0.92142,-14.76098l4.83712,-7.06247l6.59911,-9.75642l8.89983,-10.65031l12.55112,-3.11963l11.21449,-3.70975l0.53456,-0.36962l36.41841,31.6923z" fill="#d0d0ce" stroke="none" stroke-width="1"/><path d="M1388.87673,424.12405l-7.36219,39.77987l-12.41051,1.54583l-14.93333,2.08382l-11.87239,2.65563l-9.84433,-0.08939l-10.9432,-5.9501l-7.96617,1.09935l-14.07096,-4.78391l-8.98325,2.10516l-12.08417,5.00138l-12.9714,-6.33307l-15.47677,2.83068l-14.34481,-2.37423l-12.24049,-0.48499l-8.13766,-10.57043l-8.03013,-3.52456l-13.80235,-9.76281l0.85705,-14.71122l0.52471,-8.46856l-7.53726,-12.24863l0.26117,-15.06775z" fill="#d0d0ce" stroke="none" stroke-width="1"/><path d="M358.76714,758.09526l0.05301,-27.58814" fill="none" stroke="none" stroke-width="1"/><path d="" fill="none" stroke="#00bb31" stroke-width="6" opacity="0"/><path d="M466.90521,686.34954l47.33593,0.09096l0.98233,7.20909l5.29253,11.40467l2.90128,11.05168l5.11683,6.80906l4.82625,15.21559l9.03113,9.20292l13.0225,7.57981l11.66008,10.86712l14.98108,0.9723l0.19643,-0.3286l-0.00797,4.14718l-223.49959,-0.42947l0.02315,-12.0466l7.82232,-6.296l10.36592,-5.75262l4.5941,-12.65813l8.83137,-4.46999l4.46813,-11.24953l13.32057,0.90095l11.21005,-3.67805l0.59037,-12.63533l6.53082,-8.64925l0.71901,-0.47188l13.18311,-5.50069l5.49883,-6.89779l5.6248,-8.30638l9.33715,-11.10436l-9.32946,7.10437l-5.62095,6.30639l-5.49499,4.8978l-9.09681,2.41631l1.17152,-3.90205l5.82755,-9.54147l2.30856,-8.75617l2.66872,-9.68906l-2.99359,-17.2348l1.9484,-7.82328l-5.67996,6.38264l1.12781,16.51448l-4.5345,8.96874l-4.17434,8.03585l-7.69333,8.82115l-5.61499,11.76741l-2.63597,3.49102l-2.94803,1.16581l-0.53046,3.44102l-2.65934,3.52197l-0.23471,5.02335l-11.79124,-2.56863l-4.46429,9.24954l-8.82753,2.47l-4.59025,10.65813l-10.36208,3.75263l-7.81927,4.70781l0.08525,-44.3651l136.30143,-156.73838c3.00832,-4.32756 4.51857,-9.658 4.53074,-15.99132c0.00512,-2.66666 -0.32244,-5.6673 -0.9827,-9.0019c-1.98783,-6.33716 -5.47677,-12.09388 -10.46683,-17.27014c-4.99006,-5.17626 -10.98509,-7.77112 -17.98507,-7.78457c-6.33332,-0.01217 -11.66873,1.06091 -16.00622,3.21925c-4.33749,2.15834 -7.75959,4.9851 -10.26631,8.48029c-2.50672,3.49519 -4.34726,7.24166 -5.52161,11.23941c-1.17435,3.99775 -1.76473,7.66329 -1.77113,10.99662l-79.49985,-0.15276c0.0301,-15.66664 2.89194,-30.4945 8.58549,-44.48358c5.69356,-13.98909 13.55042,-26.22401 23.57057,-36.70478c10.02016,-10.48077 21.86932,-18.70801 35.54749,-24.68174c13.67817,-5.97373 28.35058,-8.94554 44.01721,-8.91543c12.99998,0.02498 25.32944,2.04868 36.9884,6.07109c11.65896,4.02241 22.31488,9.62623 31.96775,16.81146c9.65288,7.18523 17.9697,15.78456 24.95047,25.79799c6.98077,10.01343 12.29328,20.85699 15.93752,32.53068c3.31347,10.33972 4.95836,21.67623 4.93466,34.00955c-0.01656,8.61779 -0.87842,16.79879 -2.58557,24.54302l-6.17442,-0.81112l-8.88996,5.66334l-8.65423,4.90161l-5.17588,7.83052l-11.56309,5.84936l-10.16707,5.67411l-3.50897,10.74403l-3.68997,14.47783l-3.01451,11.91874l-8.28561,13.9949l-3.41068,10.14335l2.76793,8.19926z" fill="#d0d0ce" stroke="none" stroke-width="1"/><path d="M641.81177,757.53267l-32.33156,-24.86899" fill="none" stroke="none" stroke-width="1"/><path d="" fill="none" stroke="#00bb31" stroke-width="6" opacity="0"/><path d="M795.31502,724.0554c-7.72922,12.17731 -17.35635,22.15883 -28.88141,29.94456c-11.52506,7.78573 -24.65846,13.17281 -39.40021,16.16124c-14.74175,2.98844 -30.4838,3.00839 -47.22615,0.05985c-13.8879,-2.44583 -26.55306,-6.67529 -37.99548,-12.68839l-1.73812,-3.97614l-0.94021,-9.68708l3.13493,-10.31416l-0.57155,-13.67006l6.39866,-13.02489l-3.55878,-13.94656l-1.93596,-9.77925l3.31926,-12.30565l-1.38296,-15.75371l4.315,-12.21348l0.62323,-12.37095l-6.81244,-4.3038l0.23364,-2.07234l-1.65946,-12.76648l1.95485,-8.41484l4.0385,-9.22625l1.51211,-14.48147l-6.91468,-10.24008l9.38589,-12.74839l1.60427,-15.47721l-2.6552,-12.85865l1.82605,-16.01827l-4.92193,13.48538l1.10726,11.5922l-3.15221,14.21077l-10.93383,11.48195l5.36674,8.97364l-3.06005,13.21502l-5.58644,7.9598l-0.31618,0.64526l-0.13931,-0.36391l-11.0459,-9.10978l7.44194,10.84516l0.911,4.40854l-0.35434,0.72313l0.11152,11.50003l-2.50705,7.24056l5.36674,8.97364l-5.86294,10.94703l-0.16498,14.48726l-4.8672,11.0392l0.38802,8.5128l2.01084,12.68011l-7.9466,11.75845l-0.97639,12.40361l-4.68287,9.04771l-0.60773,8.42064l1.9133,5.70248c-2.05647,-2.28167 -4.00161,-4.64134 -5.83541,-7.079c-8.36487,-11.11936 -14.23922,-23.4078 -17.62306,-36.86534c-3.38383,-13.45753 -3.86165,-27.08021 -1.43344,-40.86802l27.49075,-156.09775c2.71728,-15.42922 7.94052,-29.23249 15.66974,-41.4098c7.72922,-12.17731 17.37081,-22.2409 28.92477,-30.19077c11.55396,-7.94987 24.78389,-13.40456 39.68978,-16.36409c14.90589,-2.95953 30.89415,-2.93612 47.96478,0.07023c16.74235,2.94853 31.53046,8.34523 44.36433,16.19007c7.51899,4.59606 14.2329,9.80548 20.14174,15.62826l-6.93851,4.84741l-8.46462,13.38379l-5.13461,12.35619l-2.65103,7.64425l-10.57176,4.40855l-1.95827,8.16836l1.55539,15.40761l-3.25246,13.67543l-4.80974,9.36698l1.46943,10.4219l-1.3353,11.96509l-6.85555,11.69133l2.57422,13.31449l-2.933,11.20957l6.57987,12.88777l0.3879,15.10542l0.39097,10.13678l-1.35719,9.55091l2.53405,15.28837l4.29236,10.61994l2.90405,7.80496l8.78342,7.31232l1.15161,13.83978l14.84211,8.18082l2.76953,10.8772l1.82279,0.46727c-2.54,6.51504 -5.64495,12.66351 -9.31486,18.44543z" fill="#d0d0ce" stroke="none" stroke-width="1"/><path d="M924.50258,498.85687l12.18985,41.236c0.29751,-2.5211 1.62487,-5.08593 3.98208,-7.69451c2.35721,-2.60858 5.02503,-5.04828 8.00347,-7.31912c2.97844,-2.27083 6.15491,-4.16572 9.52942,-5.68465c3.37451,-1.51893 6.34039,-2.65638 8.89767,-3.41234c18.85988,-5.5752 35.82044,-7.28681 50.88169,-5.13483c15.06125,2.15198 28.24478,6.77079 39.55059,13.85645c11.30581,7.08565 20.72836,16.03149 28.26766,26.83751c7.5393,10.80602 13.00985,21.96289 16.41167,33.47061l13.89076,46.98986c4.53576,15.34363 5.74573,30.01933 3.62993,44.02711c-2.11581,14.00778 -6.88541,26.97519 -14.3088,38.90223c-7.4234,11.92704 -17.13922,22.2724 -29.14747,31.03607c-12.00825,8.76367 -25.52436,15.36614 -40.54833,19.8074c-15.34363,4.53576 -30.49882,5.88748 -45.46557,4.05515c-14.96675,-1.83232 -28.97305,-6.29481 -42.0189,-13.38748c-13.04585,-7.09267 -24.43009,-16.50138 -34.15274,-28.22615c-9.72265,-11.72477 -16.85185,-25.25896 -21.38761,-40.60259l80.55405,-23.81272c2.45687,8.31113 7.67606,14.50222 15.65756,18.57326c7.98151,4.07104 16.12782,4.87812 24.43896,2.42126c8.31113,-2.45687 14.69121,-7.03674 19.14022,-13.73961c4.44902,-6.70287 5.44509,-14.20987 2.98822,-22.521l-10.3472,-35.00265c-2.26788,-7.67181 -6.85679,-13.78852 -13.76674,-18.35012c-6.90995,-4.5616 -15.31963,-5.37773 -25.22906,-2.44839c-8.31113,2.45687 -14.73292,7.48356 -19.26536,15.08007c-4.53244,7.59651 -5.57023,15.55033 -3.11336,23.86146l-80.55405,23.81272l-63.07537,-213.37232l30.63352,-9.05563l7.68224,6.79391l17.23396,2.73726l3.40126,10.0623l17.58247,0.52851l11.33497,8.61561l-7.49906,-9.74955l-15.66452,-1.09548l-1.4833,-10.62927l-15.31601,-3.30423l-5.99802,-7.29178l125.64746,-37.14287l0.0245,0.64944l-2.89697,11.4514l-4.11285,12.26161l4.20027,13.22852l4.68259,10.80783l3.35731,7.87431l12.94423,7.15417l-0.3407,10.19024l5.04488,7.20537z" fill="#d0d0ce" stroke="none" stroke-width="1"/><path d="M850.76933,433.05992l11.27398,-3.33272" fill="none" stroke="none" stroke-width="1"/><path d="" fill="none" stroke="#00bb31" stroke-width="6" opacity="0"/><path d="M1129.32874,591.75795l4.8358,-24.10507" fill="none" stroke="none" stroke-width="1"/><path d="" fill="none" stroke="#00bb31" stroke-width="6" opacity="0"/><path d="M1373.66908,507.53032l-136.28461,-27.34054l-8.45786,42.15999c1.43942,-2.09106 3.81013,-3.7403 7.11213,-4.94774c3.302,-1.20744 6.79994,-2.12058 10.49383,-2.73944c3.69389,-0.61886 7.38752,-0.81279 11.08091,-0.58181c3.69338,0.23098 6.84736,0.60873 9.46194,1.13325c19.28247,3.86833 35.08239,10.26776 47.39976,19.19831c12.31736,8.93055 21.82296,19.16689 28.51679,30.709c6.69383,11.54212 10.85404,23.85086 12.48062,36.92623c1.62659,13.07537 1.25972,25.49585 -1.10062,37.26142l-9.63803,48.04278c-3.14711,15.68744 -8.92419,29.23239 -17.33122,40.63485c-8.40704,11.40246 -18.6759,20.64655 -30.8066,27.73227c-12.1307,7.08571 -25.55103,11.70287 -40.26101,13.85147c-14.70998,2.1486 -29.74528,1.68213 -45.10589,-1.39942c-15.68744,-3.14711 -29.72262,-9.02253 -42.10555,-17.62626c-12.38293,-8.60373 -22.68919,-19.08568 -30.91878,-31.44585c-8.22959,-12.36017 -13.90892,-25.9936 -17.03798,-40.90027c-3.12907,-14.90667 -3.12004,-30.20373 0.02707,-45.89117l82.35905,16.52234c-1.70469,8.49736 0.02301,16.4084 5.18308,23.73311c5.16007,7.32471 11.98879,11.83941 20.48615,13.5441c8.49736,1.70469 16.27727,0.63064 23.33972,-3.22215c7.06245,-3.85279 11.44602,-10.02786 13.15071,-18.52522l7.17935,-35.78697c1.57356,-7.84372 0.36863,-15.3949 -3.61479,-22.65355c-3.98341,-7.25865 -11.04086,-11.90423 -21.17233,-13.93674c-8.49736,-1.70469 -16.52264,-0.25489 -24.07583,4.34938c-7.55319,4.60427 -12.18213,11.15509 -13.88681,19.65245l-82.35905,-16.52234l1.5455,-7.70388l4.46178,-0.75465l12.41167,-14.23921l9.38711,2.96114l14.03701,-3.31409l12.56574,-0.89843l8.73351,-8.20008l6.94194,-2.61709l0.02904,-0.08477l6.59384,-2.55569l13.09262,-7.20101l10.64962,-4.54926l12.09355,-2.84189l13.53747,-1.13453l9.84725,-1.17061l-9.06047,-2.75125l-13.14408,-0.8264l-11.70016,0.88096l-10.25623,2.58833l-11.85668,4.89242l4.12593,-3.53155l5.91889,-14.35154l-9.09893,11.92516l-12.46739,8.09717l-0.6233,1.03721l-1.86917,0.46783l-8.34012,6.23915l-12.17235,-1.06249l-13.64362,1.35316l-8.99372,-4.92207l-12.01828,12.27828l-4.34664,0.18073l37.38322,-186.34448l17.85617,3.58219l-0.48689,15.06214l7.3529,12.36018l-0.65153,8.45975l-1.07736,14.69673l13.65453,9.9685l7.97643,3.64448l7.97838,10.69116l12.23185,0.66833l14.30763,2.58888l15.51744,-2.59849l12.87506,6.5267l12.15775,-4.81977l9.01378,-1.97033l13.9977,4.99419l7.98175,-0.97987l10.85283,6.11338l9.84189,0.23687l11.91084,-2.47746l14.96287,-1.85985l12.43227,-1.35972z" fill="#d0d0ce" stroke="none" stroke-width="1"/><path d="M336.88603,821.04942l7.7166,19.22249l19.07382,-0.99962l-25.66392,-73.15711l-22.3693,1.17233l-17.87633,75.43896l19.07382,-0.99962l5.56517,-19.91856zM293.28538,858.4826l-5.47434,-104.45665l1482.36568,-77.68749l5.47434,104.45665zM466.63602,759.3743l-6.04129,33.76245l-9.53733,-32.94601l-14.08068,0.73794l-6.04129,33.76245l-9.63719,-32.94077l-19.77286,1.03625l22.96762,73.29842l16.07794,-0.84261l6.14596,-31.76519l8.43403,31.00108l15.07931,-0.79027l17.17729,-75.40233zM555.7497,782.14165c-0.24452,-3.39185 -1.04969,-6.65418 -2.41552,-9.78699c-1.36583,-3.13281 -3.31339,-5.90134 -5.84269,-8.3056c-2.87962,-2.71969 -6.10715,-4.75356 -9.6826,-6.10161c-3.57545,-1.34806 -7.32715,-1.91916 -11.25509,-1.7133l-0.09986,0.00523c-3.92794,0.20585 -7.58275,1.16511 -10.96442,2.87778c-3.38167,1.71266 -6.39557,4.07363 -9.0417,7.08291c-2.19755,2.65198 -3.84244,5.65885 -4.93466,9.02062c-1.09222,3.36177 -1.5546,6.64046 -1.38712,9.83608l0.91065,17.37615c0.27592,3.99103 1.05559,7.722 2.339,11.19293c1.28341,3.47092 3.29661,6.53643 6.03959,9.19652c2.94619,2.7162 6.20701,4.74832 9.78247,6.09638c3.57545,1.34806 7.29386,1.9209 11.15523,1.71854l0.09986,-0.00523c3.92794,-0.20585 7.59939,-1.16599 11.01435,-2.88039c3.41495,-1.71441 6.41047,-4.10779 8.98654,-7.18016c2.51647,-2.93573 4.22713,-6.27984 5.13198,-10.03234c0.90485,-3.7525 1.26307,-7.42628 1.07466,-11.02135zM614.63206,826.12026l-16.63368,-28.86902c0.86548,-0.04536 2.04028,-0.55754 3.52441,-1.53656c1.48413,-0.97902 2.92894,-2.3899 4.33442,-4.23265c1.40548,-1.84275 2.58944,-4.09113 3.55185,-6.74513c0.96242,-2.65401 1.3564,-5.64539 1.18195,-8.97416c-0.16748,-3.19561 -0.69326,-6.22224 -1.57737,-9.07989c-0.8841,-2.85765 -2.23169,-5.32383 -4.04275,-7.39856c-1.81106,-2.07473 -4.16534,-3.68706 -7.06283,-4.83699c-2.89749,-1.14993 -6.47664,-1.61325 -10.73746,-1.38995l-22.66889,1.18803l3.8938,74.29804l16.77698,-0.87924l-1.26653,-24.16683l0.19973,-0.01047l11.25283,23.64348zM643.41211,807.78891l-3.01455,-57.52106l-16.77698,0.87924l3.8938,74.29804l36.6497,-1.92073l-0.87924,-16.77698zM724.7314,783.09915c-0.27564,-5.25945 -1.26528,-10.131 -2.96894,-14.61465c-1.70366,-4.48365 -4.1065,-8.29645 -7.20852,-11.43841c-3.10202,-3.14196 -6.89974,-5.5465 -11.39315,-7.21361c-4.49341,-1.66712 -9.63614,-2.3489 -15.42819,-2.04535l-14.97944,0.78504l3.8938,74.29804l17.17643,-0.90018c6.05835,-0.3175 11.13231,-1.58479 15.22189,-3.80186c4.08957,-2.21707 7.34361,-5.09131 9.7621,-8.62273c2.41849,-3.53141 4.07588,-7.57369 4.97214,-12.12684c0.89627,-4.55315 1.21356,-9.32629 0.95188,-14.31944zM830.3369,740.31355l-6.04129,33.76245l-9.53733,-32.94601l-14.08068,0.73794l-6.04129,33.76245l-9.63719,-32.94077l-19.77286,1.03625l22.96762,73.29842l16.07794,-0.84261l6.14596,-31.76519l8.43403,31.00108l15.07931,-0.79027l17.17729,-75.40233zM883.56299,812.02619l-3.8938,-74.29804l-16.77698,0.87924l3.8938,74.29804zM939.38724,734.59846l-50.53065,2.6482l0.87924,16.77698l16.87684,-0.88448l3.01455,57.52106l16.77698,-0.87924l-3.01455,-57.52106l16.87684,-0.88448zM985.3242,732.19101l1.50728,28.76053l-19.87273,1.04149l-1.50728,-28.76053l-16.77698,0.87924l3.8938,74.29804l16.77698,-0.87924l-1.50728,-28.76053l19.87273,-1.04149l1.50728,28.76053l16.77698,-0.87924l-3.8938,-74.29804zM1071.84144,755.09443c-0.24452,-3.39185 -1.04969,-6.65418 -2.41552,-9.78699c-1.36583,-3.13281 -3.31339,-5.90134 -5.84269,-8.3056c-2.87962,-2.71969 -6.10715,-4.75356 -9.6826,-6.10161c-3.57545,-1.34806 -7.32715,-1.91916 -11.25509,-1.7133l-0.09986,0.00523c-3.92794,0.20585 -7.58275,1.16511 -10.96442,2.87778c-3.38167,1.71266 -6.39557,4.07363 -9.0417,7.08291c-2.19755,2.65198 -3.84244,5.65885 -4.93466,9.02062c-1.09222,3.36177 -1.5546,6.64046 -1.38712,9.83608l0.91065,17.37615c0.27592,3.99103 1.05559,7.722 2.339,11.19293c1.28341,3.47092 3.29661,6.53643 6.03959,9.19652c2.94619,2.7162 6.20701,4.74832 9.78247,6.09638c3.57545,1.34806 7.29386,1.9209 11.15523,1.71854l0.09986,-0.00523c3.92794,-0.20585 7.59939,-1.16599 11.01435,-2.88039c3.41495,-1.71441 6.41047,-4.10779 8.98654,-7.18016c2.51647,-2.93573 4.22713,-6.27984 5.13198,-10.03234c0.90485,-3.7525 1.26307,-7.42628 1.07466,-11.02135zM1134.3145,724.28262l-17.27629,0.90541l2.27661,43.44038c0.0942,1.79753 0.00009,3.5048 -0.28233,5.1218c-0.28243,1.617 -0.77505,3.04474 -1.47786,4.28322c-0.70281,1.23848 -1.63508,2.23864 -2.7968,3.00049c-1.16172,0.76184 -2.57477,1.18638 -4.23915,1.27361c-1.66438,0.08723 -3.11407,-0.18728 -4.34906,-0.82352c-1.23499,-0.63624 -2.28334,-1.5326 -3.14505,-2.68909c-0.86171,-1.15649 -1.51751,-2.52404 -1.96741,-4.10266c-0.4499,-1.57862 -0.72195,-3.26669 -0.81616,-5.06423l-2.27661,-43.44038l-17.27629,0.90541l2.34465,44.7386c0.20585,3.92794 0.88566,7.66415 2.03941,11.20863c1.15375,3.54447 2.86823,6.64232 5.14344,9.29355c2.27521,2.65123 5.15235,4.68677 8.63143,6.10664c3.47908,1.41987 7.64687,1.96916 12.50338,1.64788l0.09986,-0.00523c4.39746,-0.1637 8.22306,-1.04847 11.47681,-2.65429c3.25375,-1.60582 5.92685,-3.78204 8.01931,-6.52865c2.09245,-2.74661 3.62527,-5.98126 4.59844,-9.70396c0.97317,-3.7227 1.34461,-7.78104 1.11434,-12.17501zM1194.63695,721.22139l-50.53065,2.6482l0.87924,16.77698l16.87684,-0.88448l3.01455,57.52106l16.77698,-0.87924l-3.01455,-57.52106l16.87684,-0.88448zM1280.79916,733.52887l-0.87924,-16.77698l-45.53751,2.38652l3.8938,74.29804l45.53751,-2.38652l-0.87924,-16.77698l-28.76053,1.50728l-0.62803,-11.98355l21.17095,-1.10952l-0.87924,-16.77698l-21.17095,1.10952l-0.62803,-11.98355zM1344.38102,750.62469c-0.27564,-5.25945 -1.26528,-10.131 -2.96894,-14.61465c-1.70366,-4.48365 -4.1065,-8.29645 -7.20852,-11.43841c-3.10202,-3.14196 -6.89974,-5.5465 -11.39315,-7.21361c-4.49341,-1.66712 -9.63614,-2.3489 -15.42819,-2.04535l-14.97944,0.78504l3.8938,74.29804l17.17643,-0.90018c6.05835,-0.3175 11.13231,-1.58479 15.22189,-3.80186c4.08957,-2.21707 7.34361,-5.09131 9.7621,-8.62273c2.41849,-3.53141 4.07588,-7.57369 4.97214,-12.12684c0.89627,-4.55315 1.21356,-9.32629 0.95188,-14.31944zM1409.93625,709.83789l-17.27629,0.90541l2.27661,43.44038c0.0942,1.79753 0.00009,3.5048 -0.28233,5.1218c-0.28243,1.617 -0.77505,3.04474 -1.47786,4.28322c-0.70281,1.23848 -1.63508,2.23864 -2.7968,3.00049c-1.16172,0.76184 -2.57477,1.18638 -4.23915,1.27361c-1.66438,0.08723 -3.11407,-0.18728 -4.34906,-0.82352c-1.23499,-0.63624 -2.28334,-1.5326 -3.14505,-2.68909c-0.86171,-1.15649 -1.51751,-2.52404 -1.96741,-4.10266c-0.4499,-1.57862 -0.72195,-3.26669 -0.81616,-5.06423l-2.27661,-43.44038l-17.27629,0.90541l2.34465,44.7386c0.20585,3.92794 0.88566,7.66415 2.03941,11.20863c1.15375,3.54447 2.86823,6.64232 5.14344,9.29355c2.27521,2.65123 5.15235,4.68677 8.63143,6.10664c3.47908,1.41987 7.64687,1.96916 12.50338,1.64788l0.09986,-0.00523c4.39746,-0.1637 8.22306,-1.04847 11.47681,-2.65429c3.25375,-1.60582 5.92685,-3.78204 8.01931,-6.52865c2.09245,-2.74661 3.62527,-5.98126 4.59844,-9.70396c0.97317,-3.7227 1.34461,-7.78104 1.11434,-12.17501zM1451.11938,765.75917c-3.4093,-0.08836 -6.21128,-1.32674 -8.40596,-3.71516c-2.19467,-2.38841 -3.38796,-5.41344 -3.57986,-9.07508l-0.75887,-14.48013c-0.1919,-3.66164 0.66375,-6.76067 2.56695,-9.29708c1.9032,-2.53641 4.54549,-4.02674 7.92687,-4.47099c1.39459,-0.13985 2.74005,0.05667 4.03639,0.58956c1.29633,0.53289 2.46998,1.27248 3.52095,2.21877c1.05097,0.94629 1.95911,2.03359 2.72445,3.26188c0.76533,1.2283 1.37913,2.43115 1.84138,3.60857l14.05621,-8.84777c-0.85096,-2.22518 -1.98486,-4.43553 -3.4017,-6.63106c-1.41685,-2.19552 -3.22093,-4.1371 -5.41226,-5.82473c-2.19133,-1.68763 -4.7813,-3.02057 -7.76993,-3.99883c-2.98863,-0.97826 -6.51349,-1.36098 -10.57458,-1.14814l-0.09986,0.00523c-4.5937,0.24075 -8.57702,1.30067 -11.94996,3.17977c-3.37294,1.8791 -6.13457,4.27692 -8.28488,7.19346c-2.15031,2.91654 -3.71466,6.18622 -4.69307,9.80906c-0.9784,3.62284 -1.40494,7.26682 -1.27962,10.93195l0.80597,15.37889c0.40209,3.8509 1.19578,7.53107 2.38108,11.04051c1.18529,3.50944 2.93044,6.55562 5.23545,9.13852c2.305,2.58291 5.21369,4.58342 8.72606,6.00154c3.51237,1.41812 7.79841,1.9946 12.85813,1.72943l0.09986,-0.00523c4.52712,-0.23726 8.30454,-1.08611 11.33225,-2.54657c3.02771,-1.46046 5.4931,-3.14179 7.39615,-5.044c1.90305,-1.90221 3.35498,-3.81415 4.35578,-5.73582c1.0008,-1.92168 1.76939,-3.4974 2.30576,-4.72715l-14.90405,-7.33003c-0.87651,2.38247 -2.21985,4.45562 -4.03002,6.21944c-1.81017,1.76382 -4.15186,2.62088 -7.02506,2.57119zM1525.25518,758.76963l7.7166,19.22249l19.07382,-0.99962l-25.66392,-73.15711l-22.3693,1.17233l-17.87633,75.43896l19.07382,-0.99962l5.56517,-19.91856zM1606.97109,699.61187l-50.53065,2.6482l0.87924,16.77698l16.87684,-0.88448l3.01455,57.52106l16.77698,-0.87924l-3.01455,-57.52106l16.87684,-0.88448zM1637.52829,772.51254l-3.8938,-74.29804l-16.77698,0.87924l3.8938,74.29804zM1702.37613,722.04951c-0.24452,-3.39185 -1.04969,-6.65418 -2.41552,-9.78699c-1.36583,-3.13281 -3.31339,-5.90134 -5.84269,-8.3056c-2.87962,-2.71969 -6.10715,-4.75356 -9.6826,-6.10161c-3.57545,-1.34806 -7.32715,-1.91916 -11.25509,-1.7133l-0.09986,0.00523c-3.92794,0.20585 -7.58275,1.16511 -10.96442,2.87778c-3.38167,1.71266 -6.39557,4.07363 -9.0417,7.08291c-2.19755,2.65198 -3.84244,5.65885 -4.93466,9.02062c-1.09222,3.36177 -1.5546,6.64046 -1.38712,9.83608l0.91065,17.37615c0.27592,3.99103 1.05559,7.722 2.339,11.19293c1.28341,3.47092 3.29661,6.53643 6.03959,9.19652c2.94619,2.7162 6.20701,4.74832 9.78247,6.09638c3.57545,1.34806 7.29386,1.9209 11.15523,1.71854l0.09986,-0.00523c3.92794,-0.20585 7.59939,-1.16599 11.01435,-2.88039c3.41495,-1.71441 6.41047,-4.10779 8.98654,-7.18016c2.51647,-2.93573 4.22713,-6.27984 5.13198,-10.03234c0.90485,-3.7525 1.26307,-7.42628 1.07466,-11.02135zM1747.57813,692.24297l1.91026,36.44998l-21.78299,-35.40849l-17.07657,0.89494l3.8938,74.29804l17.77561,-0.93158l-1.9155,-36.54984l21.88809,35.50312l16.9767,-0.88971l-3.8938,-74.29804z" fill="#fe5000" stroke="none" stroke-width="1"/></g></svg>